<svg width="13" height="22" viewBox="0 0 13 22" fill="none" xmlns="http://www.w3.org/2000/svg">
<g id="Frame" clip-path="url(#clip0_7_53)">
<path id="Vector" d="M13.0001 6.64244C12.9835 7.69789 12.6827 8.68653 12.2936 9.62842C11.0253 12.7012 9.71591 15.7567 8.41041 18.8135C8.01876 19.73 7.56951 20.6197 7.19322 21.5429C7.04859 21.8996 6.82204 21.9825 6.51487 21.9985C6.17313 22.0172 5.94787 21.8368 5.80836 21.5269C5.60869 21.0847 5.41159 20.6424 5.2196 20.1962C3.75027 16.7867 2.26174 13.3853 0.823128 9.95975C0.487793 9.16081 0.25357 8.29909 0.0923021 7.44138C-0.179038 5.99448 0.169096 4.61973 0.885843 3.38526C2.33214 0.892277 4.50414 -0.254016 7.26361 0.0465855C10.4058 0.389939 12.5061 2.97244 12.8965 5.6725C12.9438 5.99448 12.9669 6.31913 13.0001 6.64244ZM6.51999 4.09602C5.08393 4.09201 3.92306 5.27437 3.91154 6.75333C3.9013 8.21091 5.09417 9.46008 6.49567 9.45874C7.89972 9.45741 9.06188 8.25634 9.06572 6.80143C9.06956 5.28773 7.9522 4.10003 6.51999 4.09602Z" fill="#344188"/>
</g>
<defs>
<clipPath id="clip0_7_53">
<rect width="13" height="22" fill="white"/>
</clipPath>
</defs>
</svg>
