<svg width="21" height="15" viewBox="0 0 21 15" fill="none" xmlns="http://www.w3.org/2000/svg">
<g id="Frame" clip-path="url(#clip0_7_37)">
<g id="Group">
<path id="Vector" d="M10.4955 8.99747C7.14844 6.13473 3.81726 3.28555 0.475891 0.427331C0.782948 0.0949275 1.17838 0.00447746 1.60101 0.00221621C2.86663 -0.00230629 4.13225 -4.50391e-05 5.39787 -4.50391e-05C10.057 -4.50391e-05 14.7172 -4.50391e-05 19.3763 0.00108559C19.8024 0.00108559 20.1955 0.101711 20.5298 0.414894C17.1873 3.27424 13.8516 6.12681 10.4955 8.99747Z" fill="#344188"/>
<path id="Vector_2" d="M7.89397 8.22412C8.76189 8.98164 9.62641 9.7369 10.4966 10.4967C11.3611 9.74142 12.2222 8.98955 13.097 8.22525C15.5738 10.3452 18.0439 12.4583 20.5218 14.5794C20.2091 14.8937 19.8262 14.9909 19.4171 14.9966C18.8155 15.0056 18.2127 14.9988 17.611 14.9988C12.2812 14.9988 6.95127 15 1.62139 14.9977C1.1965 14.9977 0.79993 14.9027 0.46228 14.585C2.938 12.4662 5.40692 10.352 7.89397 8.22412Z" fill="#344188"/>
<path id="Vector_3" d="M21 13.7653C18.5753 11.7087 16.1698 9.66795 13.7519 7.617C16.1698 5.51743 18.573 3.43143 21 1.32507C21 5.48803 21 9.61255 21 13.7653Z" fill="#344188"/>
<path id="Vector_4" d="M0 1.33752C2.41454 3.43144 4.81434 5.51292 7.24134 7.61702C4.82794 9.66458 2.42247 11.7031 0 13.7586C0 9.61709 0 5.49031 0 1.33752Z" fill="#344188"/>
</g>
</g>
<defs>
<clipPath id="clip0_7_37">
<rect width="21" height="15" fill="white"/>
</clipPath>
</defs>
</svg>
